# ProBuilder 4.0.5
# https://unity3d.com/unity/features/worldbuilding/probuilder
# 2019-10-09 2:03:58 AM

mtllib ./Demo_Stage.mtl
o Demo Stage

g Demo Stage
v 16.36105 -0.28 -7.696397
v 13.03653 -0.28 -6.034138
v 9.664516 -0.28 -3.46951
v 3.490412 -0.28 -3.089566
v -2.588705 -0.28 -4.656839
v -5.58077 -0.28 -6.176618
v -9.142756 -0.28 -5.27425
v -12.2773 -0.28 -6.081631
v -14.08204 -0.28 -9.121191
v -16.93163 -0.28 -11.40086
v -19.40127 -0.28 -14.20295
v -18.87884 -0.28 -18.76229
v -17.73901 -0.28 -20.89948
v -18.45141 -0.28 -23.84406
v -12.94221 -0.28 -27.88097
v -3.158623 -0.28 -29.40075
v 4.915207 -0.28 -28.45089
v 9.664518 -0.28 -29.44824
v 14.22386 -0.28 -27.691
v 17.3584 -0.28 -24.27149
v 18.11829 -0.28 -18.23987
v 19.82804 -0.28 -13.82301
v 16.31355 -0.28 -10.97342
v 19.82804 3.301078 -13.82301
v 18.11829 3.301078 -18.23987
v 16.31355 3.301078 -10.97342
v 4.915207 3.301078 -28.45089
v 14.22386 3.301078 -27.691
v 17.3584 3.301078 -24.27149
v 9.664518 3.301078 -29.44824
v 3.490412 3.301078 -3.089565
v 13.03653 3.301078 -6.034138
v 9.664516 3.301078 -3.469509
v 16.36105 3.301078 -7.696398
v -2.588705 3.301078 -4.656839
v -5.58077 3.301078 -6.176619
v -3.158623 3.301078 -29.40075
v -17.73901 3.301078 -20.89948
v -12.94221 3.301078 -27.88097
v -18.45141 3.301078 -23.84406
v -14.08204 3.301078 -9.121191
v -16.93163 3.301078 -11.40086
v -18.87884 3.301078 -18.76229
v -19.40127 3.301078 -14.20295
v -9.142756 3.301078 -5.27425
v -12.2773 3.301078 -6.081631

vt 0 0
vt -3.324519 1.662259
vt -6.696531 4.226888
vt -12.87064 4.606832
vt -18.94975 3.039558
vt -21.94182 1.519779
vt -25.5038 2.422148
vt -28.63835 1.614766
vt -30.44308 -1.424794
vt -33.29268 -3.704463
vt -35.76231 -6.506557
vt -35.23989 -11.0659
vt -34.10006 -13.20309
vt -34.81245 -16.14766
vt -29.30325 -20.18457
vt -19.51967 -21.70435
vt -11.44584 -20.75449
vt -6.696529 -21.75185
vt -2.13719 -19.9946
vt 0.9973545 -16.5751
vt 1.757244 -10.54347
vt 3.466995 -6.126611
vt -0.04749298 -3.277027
vt -3.466995 -6.126611
vt -1.757244 -10.54347
vt 0.04749298 -3.277027
vt 11.44584 -20.75449
vt 2.13719 -19.9946
vt -0.9973545 -16.5751
vt 6.696529 -21.75185
vt 12.87064 4.606832
vt 3.324519 1.66226
vt 6.696531 4.226888
vt 18.94975 3.039558
vt 21.94182 1.519779
vt 19.51967 -21.70435
vt 34.10006 -13.20309
vt 29.30325 -20.18457
vt 34.81245 -16.14766
vt 30.44308 -1.424794
vt 33.29268 -3.704463
vt 35.23989 -11.0659
vt 35.76231 -6.506557
vt 25.5038 2.422147
vt 28.63835 1.614767
vt -24.09351 -1.122745E-06
vt -27.33036 -1.122745E-06
vt -24.09351 3.581076
vt -27.33036 3.581076
vt -13.23251 1.730053E-06
vt -16.76748 1.730053E-06
vt -13.23251 3.581079
vt -16.76748 3.581079
vt -21.64313 5.053537E-07
vt -25.31763 5.053537E-07
vt -21.64313 3.581078
vt -25.31763 3.581078
vt -2.393144 0
vt -6.982315 0
vt -2.393144 3.581078
vt -6.982315 3.581078
vt -24.79225 0
vt -28.52734 0
vt -24.79225 3.581078
vt -28.52734 3.581078
vt 6.8194 0
vt 4.397251 0
vt 6.8194 3.581078
vt 4.397251 3.581078
vt -24.66213 0
vt -28.31139 0
vt -24.66213 3.581078
vt -28.31139 3.581078
vt 18.53636 0
vt 11.70643 0
vt 18.53636 3.581078
vt 11.70643 3.581078
vt -20.85151 0
vt -23.88104 0
vt -20.85151 3.581078
vt -23.88104 3.581078
vt 25.85767 0
vt 15.95675 0
vt 25.85767 3.581078
vt 15.95675 3.581078
vt 21.92194 0
vt 13.79243 0
vt 21.92194 3.581078
vt 13.79243 3.581078
vt -15.51869 -1.340526E-06
vt -18.87461 -1.340526E-06
vt -15.51869 3.581076
vt -18.87461 3.581076
vt -11.31301 9.894878E-07
vt -17.59091 9.894878E-07
vt -11.31301 3.581079
vt -17.59091 3.581079
vt 3.277371 0
vt 3.277371 3.581078
vt 4.767871E-07 3.581078
vt -3.716925 3.550217E-15
vt -3.716925 3.581078
vt -3.652416 -7.307452E-08
vt -7.888899 -7.30745E-08
vt -3.652416 3.581078
vt -7.888899 3.581078
vt -6.943512 5.060413E-07
vt -13.1293 5.060413E-07
vt -6.943512 3.581078
vt -13.1293 3.581078
vt 6.936102 0
vt 2.083198 0
vt 6.936102 3.581078
vt 2.083198 3.581078
vt 14.07112 0
vt 9.184868 0
vt 14.07112 3.581078
vt 9.184868 3.581078
vt 16.32044 0
vt 10.24113 0
vt 16.32044 3.581078
vt 10.24113 3.581078
vt 16.18326 0
vt 11.54447 0
vt 16.18326 3.581078
vt 11.54447 3.581078
vt 9.198151 0
vt 4.461918 0
vt 9.198151 3.581078
vt 4.461918 3.581078
vt 6.55156 0
vt 2.026987 0
vt 6.55156 3.581078
vt 2.026987 3.581078

vn 0 -1 0
vn 0 1 0
vn 0 0 0
vn -0.2494339 1.289459E-07 0.9683918
vn -0.8598549 -6.798057E-08 0.5105385
vn 0.2455754 1.290771E-07 0.9693775
vn -0.9934993 0 -0.1138382
vn -0.7502093 0 0.6612005
vn -0.8823537 0 -0.470587
vn -0.6246945 0 0.7808693
vn -0.5910622 0 -0.806626
vn -0.9719589 0 0.2351507
vn -0.1534988 0 -0.9881489
vn 0.1168414 0 -0.9931506
vn -0.4528655 1.187179E-07 0.8915789
vn -0.2496494 -1.289385E-07 0.9683363
vn 0.999895 0 -0.01449118
vn 0.4472135 1.190972E-07 0.8944272
vn 0.6053674 -1.059839E-07 0.7959462
vn 0.0614221 -1.329033E-07 0.9981119
vn -0.2055174 0 -0.9786534
vn 0.3596304 0 -0.9330949
vn 0.9921573 0 -0.1249961
vn 0.7371543 0 -0.6757245
vn 0.9325682 0 -0.360994
vn 0.6298019 0 0.7767558

g Demo Stage
usemtl Brown_Stony
f 23/23/1 21/21/1 22/22/1
f 21/21/1 23/23/1 17/17/1
f 19/19/1 21/21/1 17/17/1
f 20/20/1 21/21/1 19/19/1
f 17/17/1 18/18/1 19/19/1
f 23/23/1 4/4/1 17/17/1
f 2/2/1 4/4/1 23/23/1
f 2/2/1 3/3/1 4/4/1
f 23/23/1 1/1/1 2/2/1
f 5/5/1 17/17/1 4/4/1
f 17/17/1 5/5/1 6/6/1
f 6/6/1 16/16/1 17/17/1
f 16/16/1 6/6/1 13/13/1
f 13/13/1 15/15/1 16/16/1
f 14/14/1 15/15/1 13/13/1
f 13/13/1 6/6/1 9/9/1
f 13/13/1 9/9/1 10/10/1
f 12/12/1 13/13/1 10/10/1
f 11/11/1 12/12/1 10/10/1
f 6/6/1 7/7/1 9/9/1
f 9/9/1 7/7/1 8/8/1
f 46/45/2 45/44/2 41/40/2
f 41/40/2 45/44/2 36/35/2
f 42/41/2 43/42/2 44/43/2
f 42/41/2 38/37/2 43/42/2
f 42/41/2 41/40/2 38/37/2
f 41/40/2 36/35/2 38/37/2
f 38/37/2 39/38/2 40/39/2
f 37/36/2 39/38/2 38/37/2
f 38/37/2 36/35/2 37/36/2
f 27/27/2 37/36/2 36/35/2
f 36/35/2 35/34/2 27/27/2
f 31/31/2 27/27/2 35/34/2
f 32/32/2 34/1/2 26/26/2
f 31/31/2 33/33/2 32/32/2
f 26/26/2 31/31/2 32/32/2
f 27/27/2 31/31/2 26/26/2
f 28/28/2 30/30/2 27/27/2
f 28/28/2 25/25/2 29/29/2
f 27/27/2 25/25/2 28/28/2
f 27/27/2 26/26/2 25/25/2
f 24/24/2 25/25/2 26/26/2
f 8/1/3 8/1/3 7/1/3
f 7/1/3 7/1/3 8/1/3
f 9/1/3 9/1/3 8/1/3
f 8/1/3 8/1/3 9/1/3
f 7/1/3 7/1/3 6/1/3
f 6/1/3 6/1/3 7/1/3
f 12/1/3 12/1/3 11/1/3
f 11/1/3 11/1/3 12/1/3
f 11/1/3 11/1/3 10/1/3
f 10/1/3 10/1/3 11/1/3
f 13/1/3 13/1/3 12/1/3
f 12/1/3 12/1/3 13/1/3
f 10/1/3 10/1/3 9/1/3
f 9/1/3 9/1/3 10/1/3
f 15/1/3 15/1/3 14/1/3
f 14/1/3 14/1/3 15/1/3
f 14/1/3 14/1/3 13/1/3
f 13/1/3 13/1/3 14/1/3
f 16/1/3 16/1/3 15/1/3
f 15/1/3 15/1/3 16/1/3
f 17/1/3 17/1/3 16/1/3
f 16/1/3 16/1/3 17/1/3
f 6/1/3 6/1/3 5/1/3
f 5/1/3 5/1/3 6/1/3
f 5/1/3 5/1/3 4/1/3
f 4/1/3 4/1/3 5/1/3
f 1/1/3 1/1/3 23/1/3
f 23/1/3 23/1/3 1/1/3
f 2/1/3 2/1/3 1/1/3
f 1/1/3 1/1/3 2/1/3
f 3/1/3 3/1/3 2/1/3
f 2/1/3 2/1/3 3/1/3
f 4/1/3 4/1/3 3/1/3
f 3/1/3 3/1/3 4/1/3
f 18/1/3 18/1/3 17/1/3
f 17/1/3 17/1/3 18/1/3
f 19/1/3 19/1/3 18/1/3
f 18/1/3 18/1/3 19/1/3
f 21/1/3 21/1/3 20/1/3
f 20/1/3 20/1/3 21/1/3
f 20/1/3 20/1/3 19/1/3
f 19/1/3 19/1/3 20/1/3
f 22/1/3 22/1/3 21/1/3
f 21/1/3 21/1/3 22/1/3
f 23/1/3 23/1/3 22/1/3
f 22/1/3 22/1/3 23/1/3
f 46/49/4 8/47/4 7/46/4
f 7/46/4 45/48/4 46/49/4
f 41/53/5 9/51/5 8/50/5
f 8/50/5 46/52/5 41/53/5
f 45/57/6 7/55/6 6/54/6
f 6/54/6 36/56/6 45/57/6
f 43/61/7 12/59/7 11/58/7
f 11/58/7 44/60/7 43/61/7
f 44/65/8 11/63/8 10/62/8
f 10/62/8 42/64/8 44/65/8
f 38/69/9 13/67/9 12/66/9
f 12/66/9 43/68/9 38/69/9
f 42/73/10 10/71/10 9/70/10
f 9/70/10 41/72/10 42/73/10
f 39/77/11 15/75/11 14/74/11
f 14/74/11 40/76/11 39/77/11
f 40/81/12 14/79/12 13/78/12
f 13/78/12 38/80/12 40/81/12
f 37/85/13 16/83/13 15/82/13
f 15/82/13 39/84/13 37/85/13
f 27/89/14 17/87/14 16/86/14
f 16/86/14 37/88/14 27/89/14
f 36/93/15 6/91/15 5/90/15
f 5/90/15 35/92/15 36/93/15
f 35/97/16 5/95/16 4/94/16
f 4/94/16 31/96/16 35/97/16
f 34/100/17 1/1/17 23/98/17
f 23/98/17 26/99/17 34/100/17
f 32/102/18 2/101/18 1/1/18
f 1/1/18 34/100/18 32/102/18
f 33/106/19 3/104/19 2/103/19
f 2/103/19 32/105/19 33/106/19
f 31/110/20 4/108/20 3/107/20
f 3/107/20 33/109/20 31/110/20
f 30/114/21 18/112/21 17/111/21
f 17/111/21 27/113/21 30/114/21
f 28/118/22 19/116/22 18/115/22
f 18/115/22 30/117/22 28/118/22
f 25/122/23 21/120/23 20/119/23
f 20/119/23 29/121/23 25/122/23
f 29/126/24 20/124/24 19/123/24
f 19/123/24 28/125/24 29/126/24
f 24/130/25 22/128/25 21/127/25
f 21/127/25 25/129/25 24/130/25
f 26/134/26 23/132/26 22/131/26
f 22/131/26 24/133/26 26/134/26

